<svg viewBox="0 0 32 32" xmlns="http://www.w3.org/2000/svg"><g data-name="Square Menu Alt"><path d="M17.5 11h-3a2 2 0 0 1-2-2V6a2 2 0 0 1 2-2h3a2 2 0 0 1 2 2v3a2 2 0 0 1-2 2ZM9 11H6a2 2 0 0 1-2-2V6a2 2 0 0 1 2-2h3a2 2 0 0 1 2 2v3a2 2 0 0 1-2 2ZM26 11h-3a2 2 0 0 1-2-2V6a2 2 0 0 1 2-2h3a2 2 0 0 1 2 2v3a2 2 0 0 1-2 2ZM17.5 28h-3a2 2 0 0 1-2-2v-3a2 2 0 0 1 2-2h3a2 2 0 0 1 2 2v3a2 2 0 0 1-2 2ZM9 28H6a2 2 0 0 1-2-2v-3a2 2 0 0 1 2-2h3a2 2 0 0 1 2 2v3a2 2 0 0 1-2 2ZM26 28h-3a2 2 0 0 1-2-2v-3a2 2 0 0 1 2-2h3a2 2 0 0 1 2 2v3a2 2 0 0 1-2 2ZM17.5 19.5h-3a2 2 0 0 1-2-2v-3a2 2 0 0 1 2-2h3a2 2 0 0 1 2 2v3a2 2 0 0 1-2 2ZM9 19.5H6a2 2 0 0 1-2-2v-3a2 2 0 0 1 2-2h3a2 2 0 0 1 2 2v3a2 2 0 0 1-2 2ZM26 19.5h-3a2 2 0 0 1-2-2v-3a2 2 0 0 1 2-2h3a2 2 0 0 1 2 2v3a2 2 0 0 1-2 2Z" fill="#a5aab8" class="fill-000000"></path></g></svg>