<svg width="72" height="72" viewBox="0 0 72 72" fill="none" xmlns="http://www.w3.org/2000/svg">
<circle cx="36" cy="36" r="36" fill="#025EFE"/>
<rect x="20.8818" y="21.0801" width="31.3614" height="26.1415" rx="5" transform="rotate(-14.9306 20.8818 21.0801)" fill="#659EFC"/>
<path fill-rule="evenodd" clip-rule="evenodd" d="M22.713 25.6738C20.0448 26.3852 18.4586 29.125 19.17 31.7932L19.9327 34.6534L50.2255 26.5365L49.4726 23.713C48.7611 21.0448 46.0214 19.4586 43.3532 20.17L22.713 25.6738ZM50.7749 28.5969L20.4821 36.7138L23.3289 47.3897C24.0403 50.0579 26.7801 51.6441 29.4483 50.9327L50.0885 45.4289C52.7567 44.7175 54.3429 41.9777 53.6314 39.3095L50.7749 28.5969ZM27.9432 44.4909C27.8096 43.955 28.1357 43.4123 28.6715 43.2787L31.5824 42.5529C32.1183 42.4193 32.661 42.7454 32.7947 43.2813L33.02 44.1852C33.1536 44.721 32.8275 45.2638 32.2916 45.3974L29.3808 46.1231C28.8449 46.2567 28.3021 45.9306 28.1685 45.3948L27.9432 44.4909ZM34.8522 41.85C34.3163 41.9836 33.9902 42.5263 34.1238 43.0622L34.3492 43.966C34.4828 44.5019 35.0255 44.828 35.5614 44.6944L39.7146 43.6589C40.2505 43.5253 40.5766 42.9826 40.443 42.4467L40.2176 41.5428C40.084 41.0069 39.5413 40.6808 39.0054 40.8144L34.8522 41.85Z" fill="#F9FCFE"/>
</svg>
